<svg width="410" height="470" xmlns="http://www.w3.org/2000/svg">
 <g>
  <title>Layer 1</title>
  <rect stroke-width="6" fill="#ffffff" stroke="#000" x="104.57504" y="30" width="207" height="217" id="svg_39"/>
  <ellipse stroke-width="6" fill="#ffffff" stroke="#000" cx="207.57504" cy="248.5" id="svg_42" rx="104.00001" ry="21.5"/>
  <rect id="svg_1" height="50" width="201" y="196" x="107" stroke-width="0" stroke="#000" fill="#ffffff"/>
  <path fill="#ffffff" stroke="#000000" stroke-width="0" opacity="NaN" d="m85,261" id="svg_73"/>
  <path fill="#000000" stroke="#000" d="m219.07497,381.27804l-17.99999,30l-17.99999,-30l35.99998,0z" id="svg_19"/>
  <g id="svg_23" stroke-width="8">
   <ellipse fill="#fff" cx="138.14228" cy="314.24971" id="svg_11" rx="39.56776" ry="24.75167" stroke="#000000"/>
   <ellipse fill="#fff" cx="273.50566" cy="314.24971" id="svg_12" rx="39.56776" ry="24.75167" stroke="#000000"/>
  </g>
  <g id="svg_27" stroke-width="8">
   <line fill="none" stroke="#000" x1="131.9827" y1="391.42094" x2="0.49993" y2="342.9273" id="svg_24"/>
   <line fill="none" stroke="#000" x1="129.48303" y1="407.41885" x2="-0.00001" y2="405.91904" id="svg_25"/>
   <line fill="none" stroke="#000" x1="129.98296" y1="399.4199" x2="-0.00001" y2="378.42265" id="svg_26"/>
  </g>
  <g id="svg_31" stroke-width="8">
   <line fill="none" stroke="#000" x1="269.49939" y1="389.99751" x2="398.40552" y2="346.4994" id="svg_28"/>
   <line fill="none" stroke="#000" x1="271.95008" y1="404.3474" x2="398.89566" y2="403.0021" id="svg_29"/>
   <line fill="none" stroke="#000" x1="271.45994" y1="397.17245" x2="398.89566" y2="378.33822" id="svg_30"/>
  </g>
  <ellipse fill="#000000" stroke="#000" cx="146.81014" cy="314.59806" id="svg_32" rx="4.99935" ry="17.99764"/>
  <ellipse fill="#000000" stroke="#000" cx="282.29238" cy="313.59819" id="svg_38" rx="4.99935" ry="17.99764"/>
  <ellipse stroke-width="6" fill="#ffffff" stroke="#000" cx="114.07504" cy="53" id="svg_45" rx="61.5" ry="49"/>
  <ellipse stroke-width="6" fill="#ffffff" stroke="#000" cx="201.57504" cy="51" id="svg_46" rx="55" ry="51"/>
  <ellipse stroke-width="6" fill="#ffffff" stroke="#000" cx="295.57505" cy="52.00001" id="svg_47" rx="62" ry="52"/>
  <g id="svg_52" stroke-width="8">
   <line fill="none" stroke="#000" x1="94.57504" y1="255" x2="14.57504" y2="209" id="svg_48"/>
   <line fill="none" stroke="#000" x1="33.57504" y1="308" x2="13.57504" y2="208" id="svg_49"/>
  </g>
  <g id="svg_55" transform="rotate(4.21157, 354.575, 261.5)" stroke-width="8">
   <line fill="none" stroke="#000" x1="310.57503" y1="258.47" x2="397.48862" y2="212.01" id="svg_53"/>
   <line fill="none" stroke="#000" x1="376.84664" y1="312" x2="398.57504" y2="211" id="svg_54"/>
  </g>
  <line fill="none" stroke="#000000" x1="142.57504" y1="104" x2="143.57504" y2="241" id="svg_67" stroke-width="3"/>
  <line fill="none" stroke="#000000" x1="190.57504" y1="108" x2="190.57504" y2="244.86358" id="svg_68" stroke-width="3"/>
  <line fill="none" stroke="#000000" x1="237.57504" y1="104" x2="237.57504" y2="240.03309" id="svg_70" stroke-width="3"/>
  <line fill="none" stroke="#000000" x1="281.57504" y1="103" x2="281.57504" y2="236.00376" id="svg_71" stroke-width="3"/>
  <path fill="none" stroke="#000000" id="svg_75" d="m200.57504,427c0,0 0,0 0,1.06222c0,0 0,0 0,0c0,0 0,0 0,0c0,0 -1.14655,1.06222 -1.14655,1.06222c0,1.06222 0,1.06222 0,1.06222c0,0 -1.14655,0 -1.14655,0c0,1.06222 -1.14655,2.12445 -1.14655,2.12445c0,0 0,1.06222 0,1.06222c0,0 -1.14655,1.06222 -1.14655,1.06222c0,0 -1.14655,1.06222 -1.14655,2.12445c0,0 -0.33583,-0.75109 -1.14655,0c-0.81072,0.75109 -1.14655,2.12445 -2.2931,4.24889c0,0 0,0 -1.14655,1.06222c-1.14655,1.06222 -1.14655,1.06222 -3.43966,3.18667c-1.14655,1.06222 -1.59012,3.09914 -4.58621,4.24889c-1.05929,0.4065 -2.09104,1.57875 -4.58621,2.12445c-2.23177,0.48809 -4.6354,1.81662 -5.73276,2.12445c-3.95656,1.10984 -4.64754,1.63635 -6.87931,2.12445c-2.49517,0.5457 -4.58621,2.12445 -6.87931,2.12445c-2.2931,0 -5.53069,1.57875 -8.02586,2.12445c-1.11587,0.24406 -3.43966,0 -4.58621,0c-4.58621,0 -5.59353,0.52417 -9.17241,1.06222c-2.2635,0.34031 -3.43966,0 -6.87931,0c-2.2931,0 -6.89649,0.25959 -9.17241,0c-4.69195,-0.53513 -6.8038,-1.21549 -9.17241,-2.12445c-3.34973,-1.28544 -5.7941,-0.57413 -8.02586,-1.06222c-2.49517,-0.5457 -3.43966,-2.12445 -6.87931,-2.12445c-1.14655,0 -3.61422,-1.31144 -5.73276,-2.12445c-2.99609,-1.14975 -4.24852,-2.49218 -6.87931,-4.24889c-2.07984,-1.38882 -3.52692,-1.71794 -4.58621,-2.12445c-1.49803,-0.57487 -2.2931,-2.12445 -3.43966,-2.12445c-1.14655,0 -1.14655,-1.06222 -2.2931,-2.12445c0,0 -1.14655,0 -1.14655,0c0,-1.06222 -1.14655,-2.12445 -2.2931,-2.12445c-1.14655,0 -1.14655,-1.06222 -2.2931,-2.12445l0,0l0,0l0,0" stroke-width="8"/>
  <path fill="none" stroke="#000000" id="svg_76" d="m201.57503,426c0,0 0,0 0,1.09333c0,0 0,0 0,0c0,0 0,0 0,0c0,0 1.12931,1.09333 1.12931,1.09333c0,1.09333 0,1.09333 0,1.09333c0,0 1.12931,0 1.12931,0c0,1.09333 1.12931,2.18667 1.12931,2.18667c0,0 0,1.09333 0,1.09333c0,0 1.12931,1.09333 1.12931,1.09333c0,0 1.12931,1.09333 1.12931,2.18667c0,0 0.33078,-0.77309 1.12931,0c0.79853,0.77309 1.12931,2.18667 2.25862,4.37334c0,0 0,0 1.12931,1.09333c1.12931,1.09333 1.12931,1.09333 3.38793,3.28c1.12931,1.09333 1.56621,3.18992 4.51724,4.37334c1.04336,0.41841 2.05959,1.62499 4.51724,2.18667c2.19821,0.50239 4.5657,1.86983 5.64655,2.18667c3.89707,1.14235 4.57766,1.68428 6.77586,2.18667c2.45765,0.56168 4.51724,2.18667 6.77586,2.18667c2.25862,0 5.44752,1.62499 7.90517,2.18667c1.09909,0.25121 3.38793,0 4.51724,0c4.51724,0 5.50942,0.53953 9.03448,1.09333c2.22946,0.35028 3.38793,0 6.77586,0c2.25862,0 6.79278,0.26719 9.03448,0c4.62139,-0.5508 6.70149,-1.25109 9.03448,-2.18667c3.29936,-1.32309 5.70697,-0.59094 7.90517,-1.09333c2.45765,-0.56168 3.38793,-2.18667 6.77586,-2.18667c1.12931,0 3.55987,-1.34985 5.64655,-2.18667c2.95103,-1.18342 4.18463,-2.56517 6.77586,-4.37334c2.04856,-1.4295 3.47388,-1.76826 4.51724,-2.18667c1.4755,-0.59171 2.25862,-2.18667 3.38793,-2.18667c1.12931,0 1.12931,-1.09333 2.25862,-2.18667c0,0 1.12931,0 1.12931,0c0,-1.09333 1.12931,-2.18667 2.25862,-2.18667c1.12931,0 1.12931,-1.09333 2.25862,-2.18667l0,0l0,0l0,0" stroke-width="8"/>
 </g>

</svg>